<svg xmlns="http://www.w3.org/2000/svg" width="38.299" height="28.924" viewBox="0 0 38.299 28.924">
  <defs>
    <style>
      .cls-1 {
        fill: #fff;
      }
    </style>
  </defs>
  <g id="surface1" transform="translate(-2.573 -5.135)">
    <path id="Path_20" data-name="Path 20" class="cls-1" d="M12.4,5.257A3.667,3.667,0,0,0,9.489,8.449a13.717,13.717,0,0,0,.136,3.743,13.339,13.339,0,0,0,1.7,4.251,1.142,1.142,0,0,1,.057,1.4c-.186.4-.522.573-2.483,1.231-4.28,1.453-5.382,2.3-6.012,4.581A10.894,10.894,0,0,0,2.6,26.3c.014.014,1.116.036,2.426.036h2.39l.215-.236A11.845,11.845,0,0,1,10,24.595a37.417,37.417,0,0,1,4.609-1.789,18.086,18.086,0,0,0,2.025-.752l.308-.193-.172-.3a15.89,15.89,0,0,1-1.832-3.972c-1.2-3.686-1.281-7.229-.229-9.562a6.865,6.865,0,0,1,1.489-2.1l.372-.322L16.03,5.4A9.1,9.1,0,0,0,12.4,5.257Zm0,0" transform="translate(0 0.003)"/>
    <path id="Path_21" data-name="Path 21" class="cls-1" d="M16.98,5.224a7.041,7.041,0,0,0-.759.236l-.4.15.551.544c1.381,1.388,2.011,3.185,2,5.8a18.718,18.718,0,0,1-2.555,9.268c-.294.487-.2.766.308.966.222.1,1.167.429,2.118.744a35.4,35.4,0,0,1,4.3,1.689,14.632,14.632,0,0,1,2.433,1.517c.172.186.265.193,2.6.193h2.419l-.057-1A5.581,5.581,0,0,0,28.3,21.291a14.866,14.866,0,0,0-4.416-2.118c-2.541-.866-2.734-1-2.906-2.018-.043-.336-.014-.458.279-.938a12.877,12.877,0,0,0,1.739-6.391c0-2.684-.909-4.072-3.006-4.566A10.858,10.858,0,0,0,16.98,5.224Zm0,0" transform="translate(10.881 0)"/>
    <path id="Path_22" data-name="Path 22" class="cls-1" d="M18.37,5.512a5.285,5.285,0,0,0-3.092,1.5c-1.489,1.553-1.882,4.237-1.159,7.851a17.7,17.7,0,0,0,2.219,5.64c.437.665.444.68.358,1.145-.215,1.152-.544,1.4-3.092,2.254-5.2,1.732-6.821,2.684-7.844,4.659A10.823,10.823,0,0,0,4.671,33.03l-.05.766h30.8l-.043-.773a11.6,11.6,0,0,0-.988-4.273c-1.023-2.025-2.462-2.92-7.529-4.666-1.217-.429-2.412-.888-2.641-1.023a2.019,2.019,0,0,1-.916-1.553c-.093-.544-.093-.551.279-1.138,2.1-3.328,3.056-8.431,2.118-11.394a4.752,4.752,0,0,0-3.536-3.321A15.564,15.564,0,0,0,18.37,5.512Zm0,0" transform="translate(1.704 0.263)"/>
  </g>
</svg>
