<svg id="hamburger-menu" xmlns="http://www.w3.org/2000/svg" width="29.412" height="22.764" viewBox="0 0 29.412 22.764">
  <defs>
    <style>
      .cls-1 {
        fill: #fff;
        fill-rule: evenodd;
      }
    </style>
  </defs>
  <path id="Path_10" data-name="Path 10" class="cls-1" d="M2.482,0H26.931a2.393,2.393,0,0,1,2.481,2.278h0a2.393,2.393,0,0,1-2.481,2.278H2.482A2.393,2.393,0,0,1,0,2.278H0A2.393,2.393,0,0,1,2.482,0Zm0,18.208H26.931a2.393,2.393,0,0,1,2.481,2.278h0a2.393,2.393,0,0,1-2.481,2.278H2.482A2.393,2.393,0,0,1,0,20.486H0a2.393,2.393,0,0,1,2.482-2.278Zm0-9.1H26.931a2.393,2.393,0,0,1,2.481,2.278h0a2.393,2.393,0,0,1-2.481,2.278H2.482A2.394,2.394,0,0,1,0,11.382H0A2.393,2.393,0,0,1,2.482,9.1Z"/>
</svg>
