<svg id="icons8-home" xmlns="http://www.w3.org/2000/svg" width="30.691" height="26.506" viewBox="0 0 30.691 26.506">
  <defs>
    <style>
      .cls-1 {
        fill: #fff;
      }
    </style>
  </defs>
  <path id="icons8-home-2" data-name="icons8-home" class="cls-1" d="M16.346,2a1.4,1.4,0,0,0-.992.414L1.283,14.692A.7.7,0,0,0,1.7,15.951H5.185V27.111a1.4,1.4,0,0,0,1.4,1.4h5.58a1.4,1.4,0,0,0,1.4-1.4v-8.37h5.58v8.37a1.4,1.4,0,0,0,1.4,1.4h5.58a1.4,1.4,0,0,0,1.4-1.4V15.951h3.488a.7.7,0,0,0,.414-1.259L17.346,2.422l-.008-.008A1.4,1.4,0,0,0,16.346,2Z" transform="translate(-1 -2)"/>
</svg>
