<svg xmlns="http://www.w3.org/2000/svg" width="32" height="26.14" viewBox="0 0 32 26.14">
  <defs>
    <style>
      .cls-1 {
        fill: #fff;
      }
    </style>
  </defs>
  <g id="surface1" transform="translate(0 -2.93)">
    <path id="Path_6" data-name="Path 6" class="cls-1" d="M13.824,21.188a2.554,2.554,0,0,0,0,2.5.87.87,0,0,0,1.59,0l4.09-6.444a2,2,0,0,0,.242-.579,2.653,2.653,0,0,0,0-1.354,2.075,2.075,0,0,0-.242-.572L15.414,8.306a.87.87,0,0,0-1.59,0,2.555,2.555,0,0,0,0,2.505l2.168,3.416H1.125C.5,14.227,0,15.021,0,16s.5,1.773,1.125,1.773H15.992Zm0,0" transform="translate(0 0)"/>
    <path id="Path_7" data-name="Path 7" class="cls-1" d="M27.138,2.93H10.727A4.875,4.875,0,0,0,5.859,7.8l.005,5.156h.289A1.454,1.454,0,0,0,8.5,12.948l.279-.005V7.8A1.947,1.947,0,0,1,10.727,5.85H27.138A1.946,1.946,0,0,1,29.08,7.8V24.2a1.946,1.946,0,0,1-1.942,1.947H10.727A1.947,1.947,0,0,1,8.78,24.2V19.042H8.486a1.448,1.448,0,0,0-2.337.01l-.289.005V24.2a4.875,4.875,0,0,0,4.867,4.867H27.138A4.871,4.871,0,0,0,32,24.2V7.8A4.871,4.871,0,0,0,27.138,2.93Zm0,0" transform="translate(0 0)"/>
  </g>
</svg>
