<svg id="surface1" xmlns="http://www.w3.org/2000/svg" width="27.05" height="26.52" viewBox="0 0 27.05 26.52">
  <defs>
    <style>
      .cls-1 {
        fill: #fff;
      }
    </style>
  </defs>
  <path id="Path_4" data-name="Path 4" class="cls-1" d="M1.085,25.262H25.964a1.145,1.145,0,0,0,.849-.355.854.854,0,0,0,.228-.707,13.171,13.171,0,0,0-7.205-9.949,9.174,9.174,0,0,1-12.622,0A13.171,13.171,0,0,0,.008,24.2a.853.853,0,0,0,.228.707A1.145,1.145,0,0,0,1.085,25.262Zm0,0" transform="translate(0 1.258)"/>
  <path id="Path_5" data-name="Path 5" class="cls-1" d="M7.754,13.3c.151.148.305.285.468.422a8.34,8.34,0,0,0,10.6,0c.163-.137.318-.273.468-.422s.293-.3.427-.453a7.1,7.1,0,0,0,1.773-4.668A7.73,7.73,0,0,0,13.524.738a7.73,7.73,0,0,0-7.97,7.445,7.117,7.117,0,0,0,1.769,4.668C7.461,13.008,7.608,13.16,7.754,13.3Zm0,0" transform="translate(0 -0.738)"/>
</svg>
