<svg xmlns="http://www.w3.org/2000/svg" width="69.464" height="57.646" viewBox="0 0 69.464 57.646">
  <defs>
    <style>
      .cls-1 {
        opacity: 0.38;
      }
    </style>
  </defs>
  <path id="Path_80" data-name="Path 80" class="cls-1" d="M69.289,46.068,64.063,39H39.829L50.69,24.87,43.2,13.73,28.95,31.225a12.257,12.257,0,0,0-8.677-3.96c-4.3-.013-8.172,2.51-10.94,6.607L8.283,32.31.525,42.812l4.531,6.647c.2,11.825,6.928,21.9,15.217,21.917C25.9,71.361,30.8,68,33.422,61H39.58l4.879-7.5,3.733,5.013,3.582-5.231,3.683,5.153L59.189,53.1l3.732,5.278,6.37-8.84A2.508,2.508,0,0,0,69.289,46.068ZM17.03,61.955,3.8,42.38l4.184-5.436,9.5,13.982L43.454,18.257l3.737,5.6Z" transform="translate(-0.525 -13.73)"/>
</svg>
