<svg xmlns="http://www.w3.org/2000/svg" xmlns:xlink="http://www.w3.org/1999/xlink" width="1136.487" height="1254.915" viewBox="0 0 1136.487 1254.915"><defs><style>.a{fill:url(#a);}.b{fill:#707070;}</style><linearGradient id="a" x1="0.5" x2="0.5" y2="1" gradientUnits="objectBoundingBox"><stop offset="0" stop-color="#24ea59"/><stop offset="1" stop-color="#7787e0"/></linearGradient></defs><g transform="translate(0.956 0.685)"><path class="a" d="M1684-1244.4c-374.4,196.8-174.4,294.4-382.4,400s-369.6,32-488,196.8S687.2-468.4,687.2-468.4L1708-486Z" transform="translate(1849.638 1350.017) rotate(-115)"/><path class="b" d="M1684.475-1245.212l.025.8,24.013,758.906-.507.009L686.341-467.884l.421-.758c.082-.148,2.2-3.9,18.826-27.842,15.329-22.081,46.441-66.273,107.6-151.406A316.848,316.848,0,0,1,840.1-680.64a266.793,266.793,0,0,1,28.329-25.989,258.275,258.275,0,0,1,60.939-35.682A335.532,335.532,0,0,1,961.977-754c10.488-3.192,21.623-6.113,34.041-8.93,23.167-5.254,47.083-9.3,72.4-13.587,69.167-11.706,147.563-24.974,232.951-68.325,88.821-45.094,103.093-88.74,119.619-139.278,5.573-17.044,11.336-34.667,20.267-53.49a261.724,261.724,0,0,1,16.111-29.1,288.423,288.423,0,0,1,22.967-30.969,372.622,372.622,0,0,1,31.972-33.062,532.878,532.878,0,0,1,43.127-35.389c16.879-12.511,35.867-25.28,56.435-37.953,21.717-13.381,45.907-27.092,71.9-40.754Zm23.007,758.722-23.956-757.093c-94.991,50-161.217,97.94-202.428,146.547a287.409,287.409,0,0,0-22.887,30.86,260.749,260.749,0,0,0-16.05,28.992c-8.9,18.766-14.656,36.359-20.22,53.373-4.19,12.813-8.147,24.916-13.216,36.864a191.089,191.089,0,0,1-8.559,17.729,158.975,158.975,0,0,1-11.065,17.382,177.384,177.384,0,0,1-33.242,34.081,264.463,264.463,0,0,1-23.969,16.887c-9.077,5.7-19.193,11.4-30.065,16.916-10.386,5.273-21.053,10.293-31.706,14.921-10.113,4.393-20.534,8.573-30.974,12.422-19.166,7.067-38.713,13.186-59.757,18.706-38.861,10.194-75.432,16.384-110.8,22.369-25.306,4.283-49.208,8.328-72.349,13.576-12.395,2.811-23.507,5.726-33.971,8.911a334.547,334.547,0,0,0-32.514,11.657C882.686-721.6,845.905-691.71,814-647.307c-60.992,84.894-92.082,129.051-107.422,151.144-13.028,18.763-17.248,25.275-18.484,27.248Z" transform="translate(1849.638 1350.017) rotate(-115)"/></g></svg>