<svg xmlns="http://www.w3.org/2000/svg" xmlns:xlink="http://www.w3.org/1999/xlink" width="917.759" height="769.746" viewBox="0 0 917.759 769.746"><defs><style>.a,.j{fill:#2271ff;}.a,.c,.m{opacity:0.1;}.b{fill:#5f5d7e;}.d{fill:#474157;}.e{fill:#ededf4;}.f{fill:#e6e8ec;}.g{fill:#7787e0;}.h{fill:url(#a);}.i{fill:#fdc2cc;}.k{opacity:0.3;}.l{fill:url(#b);}.n{fill:#ffd037;}.o{fill:#65617d;}.p{fill:#9d9cb5;}</style><linearGradient id="a" x1="0.5" y1="1" x2="0.5" gradientUnits="objectBoundingBox"><stop offset="0" stop-color="gray" stop-opacity="0.251"/><stop offset="0.54" stop-color="gray" stop-opacity="0.122"/><stop offset="1" stop-color="gray" stop-opacity="0.102"/></linearGradient><linearGradient id="b" x1="0.5" x2="0.586" y2="0.575" gradientUnits="objectBoundingBox"><stop offset="0" stop-color="#24ea59"/><stop offset="1" stop-color="#7787e0"/></linearGradient></defs><path class="a" d="M396.625,82.64c28.024-27.43,72.027-33,112.069-30.84,125.789,6.87,239.333,73.56,337.544,149,35.553,27.31,70.561,56.74,93.641,94.35,46.98,76.57,33.05,182.63-32.285,245.7-22.224,21.46-49.165,37.91-76.834,52.5-49.165,25.93-102.254,46.74-158.074,52.67-39.814,4.22-80.121.79-119.689-5.11C442.412,624.45,333.894,588,242.93,525.72c-39.9-27.33-77.507-61.3-93.95-105.52S143.061,320,183.841,293.8c16.853-10.82,37-15.71,56.722-20.3,29.035-6.76,58.534-13.42,84.727-27.15,27.059-14.19,59.107-41.63,53.717-73C373.217,139.63,368.664,110,396.625,82.64Z" transform="translate(-100.5 -51.38)"/><circle class="a" cx="31.5" cy="31.5" r="31.5" transform="translate(138.49 97.89)"/><circle class="a" cx="19.5" cy="19.5" r="19.5" transform="translate(88.59 34.89)"/><circle class="a" cx="12" cy="12" r="12" transform="translate(832.329 102.39)"/><ellipse class="a" cx="84.24" cy="8.4" rx="84.24" ry="8.4" transform="translate(546.433 752.946)"/><path class="b" d="M214,487.31l-.37,19.95-2.96,161.71-25.34,59.34-87.33,1V496.5l91.14-7.22Z" transform="translate(0 -27.504)"/><path class="c" d="M214,487.31l-.37,19.95-2.96,161.71-25.34,59.34-87.33,1V496.5l91.14-7.22Z" transform="translate(0 -27.504)"/><path class="b" d="M214,487.31l-.37,19.95-2.96,161.71-25.34,59.34L192,507.64l-.02-.14-2.84-18.22Z" transform="translate(-15.517 -27.504)"/><path class="c" d="M189.14,489.28,214,487.31l-.37,19.95-21.65.24L98,508.55V496.5Z" transform="translate(0 -17.275)"/><path class="b" d="M999,496.5V727.97H978.67l-81.34-59.33V489.97L970,483.14l4.46,2.05,4.21,1.94Z" transform="translate(-81.241 -27.504)"/><rect class="c" width="20.33" height="242.78" transform="translate(897.429 457.686)"/><path class="c" d="M999,485.19V498.5l-20.33.23-81.34.9v-9.66L970,483.14l4.46,2.05,4.21,1.94v-1.94Z" transform="translate(-81.241 -17.023)"/><path class="b" d="M917.759,477.64V496.5L0,507.64v-24l86.356-19,751.479-6Z" transform="translate(0 -16.862)"/><path class="c" d="M917.759,477.64V496.5L0,507.64v-24Z" transform="translate(0 -17.126)"/><rect class="d" width="349.92" height="271.69" rx="22.82" transform="translate(319.753 184.761)"/><rect class="e" width="294.12" height="221.63" transform="translate(348.289 208.987)"/><circle class="f" cx="4.82" cy="4.82" r="4.82" transform="translate(346.373 314.099)"/><circle class="f" cx="7.95" cy="7.95" r="7.95" transform="translate(635.604 311.489)"/><path class="g" d="M672.93,382.52l-37.61-22.86a5.14,5.14,0,0,0-7.63,4.48V408.6a5.14,5.14,0,0,0,7.63,4.48l37.61-21.58a5.15,5.15,0,0,0,0-8.98Zm28.28,3.85a53,53,0,1,0-53,53A53,53,0,0,0,701.21,386.37Zm-95.74,0a43.27,43.27,0,1,0,0-.01Z" transform="translate(-145.506 -62.596)"/><path class="h" d="M904.38,560.51a12.5,12.5,0,0,0-1.13-3.52c.76-2.59,1.25-4.18,1.25-4.18a5.839,5.839,0,0,0-.12-1,15.35,15.35,0,0,0-15.55-12.88c-6,.11-17.38.51-30,1.93.72-5.05,1.58-11.09,2.48-17.31l1.65.18a7.909,7.909,0,0,1,1.18.06h.53a5.44,5.44,0,0,0,3.66-1.12,2.16,2.16,0,0,0-.67-3.54,8.92,8.92,0,0,0,7.83-3.28,7,7,0,0,0,0-8.14c-2.11-3-6.58-5-6.82-8.53-.13-2,1.21-3.8,2.26-5.57a23.27,23.27,0,0,0-3.67-27.95,54.746,54.746,0,0,0-4.44-3.95c-2.2-8.08-4.5-15.3-5.18-15.53-.88-.29-2.39-2.19-3.83-3.82a18.4,18.4,0,0,0-.07-4.13c-1.06-7-8-12-11.82-18.18s-4.51-13.75-3.53-20.83,3.45-13.93,5.46-20.84c1.5-5.13,2.75-10.58,1.07-15.67-1.19-3.63-3.78-6.77-6.45-9.72-6.41-7.09-13.8-13.73-22.92-18a45.549,45.549,0,0,0-20.29-4.34h-.07l-1.1.06-.78.05-.78.08-.83.08h0c-.85.11-1.69.24-2.53.41a87.31,87.31,0,0,0-18.55-2.08h-.81a9.5,9.5,0,0,0-5.3,1.25c-2.22,1.55-2.5,4.33-3.17,6.75a18.73,18.73,0,0,1-7.2,10c-2.39,1.72-5.2,3-7.48,4.8s-4.06,4.5-3.45,7.16c.51,2.23,2.59,3.89,5,4.9-.29.36-.59.71-.87,1.08.47.19,1,.36,1.43.5,3,.89,6.23,1,9.27,1.81a20.306,20.306,0,0,1,2.46.83,35.12,35.12,0,0,0-4.11,16.52,35.59,35.59,0,0,0,18.62,31.22c0,.34,0,.67,0,1,.31,10.44-.48,23.14-5.82,25.29s-10.45,4.58-13.6,6.15l-1,.53c-.83-.38-1.66-.78-2.47-1.2,0,0-4.25-.5-3.51,2.74,0,0-12.85-2-19.9,3.49s-18.62,16.95-20.89,19.94S688,483.54,688,483.54s5.53-7.73,3.14-17.2c0,0-2.64-11.42-1.38-16s4.53-21.58,4.53-21.58.46-17.94-9.33-26.17-16.6-15-12.82-7a111.479,111.479,0,0,0,5.54,10.71s-23.41,5.56-15.1,14.24,10.57,8.69,10.57,8.69-2.77,21.43-3.28,25.42-5,34.39-5,34.39-.25,14.46,2.27,16.7c0,0,1.65,9.31,12.08,9,0,0,19.88-.5,25.42-2.74s24.66-14.21,26.68-13.46a1.149,1.149,0,0,1,.39.26,2.835,2.835,0,0,1,.3.3c-2,4.43-6.74,19.47-4.72,26.86,0,0-1.76,20.93,8.81,27.66,0,0,15.35,25.92,9.56,39.87-.46,1.13-.87,2.17-1.25,3.18-8.79-7.29-22.2-14-42.68-17.71-2.09-.38-4.17-.84-6.23-1.34-5.82-1.41-21.83-2.7-29.45,22.61a111.356,111.356,0,0,1-6.76,17.12c-3,6.07-6.33,14.77-6.4,23.4-.17,12.1,6.08,24.09,28.76,28.49.25,9,1.28,19.72,4.36,27.43,6.29,15.7,16.36,41.12,16.36,41.12s12.08,25.92,12.84,36.38c.49,6.85,1.21,15.83.71,22a9.776,9.776,0,0,1-.1,1.1,26.53,26.53,0,0,1-3.38,3.07c-1.76,1-7.55,7.23-7.55,8.72a26.635,26.635,0,0,0,.38,4.26c-2.74,2.39-4.24,5-4.24,7.6,0,13.52,38.37,24.48,85.7,24.48s85.69-11,85.69-24.48c0-12.34-32-22.54-73.58-24.22,8.67-3.46,16.37-7.09,19.56-10a4.681,4.681,0,0,0,1.51-2.06l-8.05-18.69s-.63.14-1.56.41l-.56-.84c-3.58-5.45-10.47-16.31-10.47-19.26,0-1.09-1.82-8.06-4.46-17.61V698c26.26,4,60.1-1.44,60.1-1.44l.15-.08h.66v-.36c4.55-2.52,27.31-15.85,34.06-33.53,2-5.16-.49-12.55-5.44-20.45,3.46-8.59,12-30.78,11.15-39.63,0-.47-.06-1-.06-1.52a26.1,26.1,0,0,0,.1-2.72c1-13,9-36.75,9-36.75S904.48,561.11,904.38,560.51Zm-170-57.76c1.82,3.2,3.77,7.29,4.54,8.95h0s-2.66-4.9-4.49-8.95Zm1.9,280.1-.19.07v-1a59.372,59.372,0,0,1,.19-7.82,9.159,9.159,0,0,0-.86-4.06,96,96,0,0,1-6.13-24.13c-1-8.72-1.83-18.23-1.31-20.65.78-3.71,1.42-31.81.45-45.66l15.48,3.48,18,36.7s11.58,17.92,15.17,32.06V766a34.6,34.6,0,0,1-5.41,11.74c-2.39,3.27-4.72,6.58-6.88,10-.66,1.06-1.39,2.15-2.12,3.17-.24,0-12.07.69-14.08,2.91-1.24,1.37-3.4,3.53-3.76,5.7l-.51.08c-2.32-6.91-7.99-16.75-7.99-16.75Z" transform="translate(-160.547 -78.874)"/><path class="c" d="M812.43,770l-4,13-17,14.75-25,7.18s-11.75-6.43-7.75-7.68c1.11-.35,2.43-1.62,3.77-3.28-1.4,5.1,9.73-1.47,9.73-1.47s28.75-20.5,31.75-22.75a22.609,22.609,0,0,1,6.4-2.93C811.58,768.77,812.43,770,812.43,770Z" transform="translate(-157.046 -78.874)"/><path class="i" d="M812.43,770l-4,13-17,14.75-25,7.18s-11.75-6.43-7.75-7.68c1.11-.35,2.43-1.62,3.77-3.28a50.009,50.009,0,0,0,3.34-4.82c2.14-3.44,4.46-6.76,6.83-10a36,36,0,0,0,6.31-16.61c1.75-13.75-16-41.5-16-41.5l-32.25-66.25,45,5.5s24.25,83.25,24.25,87.25c0,3,6.84,13.85,10.4,19.32C811.58,768.77,812.43,770,812.43,770Z" transform="translate(-156.315 -78.874)"/><ellipse class="b" cx="85.12" cy="24.55" rx="85.12" ry="24.55" transform="translate(542.853 718.996)"/><path class="j" d="M820.43,786a4.8,4.8,0,0,1-1.5,2.07c-6.18,5.67-29.29,14.1-43.57,18.68A101.092,101.092,0,0,1,763.93,810c-3.5.25-10.75-2-15.75-5.07s-.5-7.43,1.52-9.68,14-2.92,14-2.92c-5.75,9.57,8.49,1.17,8.49,1.17s28.75-20.5,31.75-22.75,8.5-3.5,8.5-3.5Z" transform="translate(-157.217 -78.874)"/><path class="k" d="M820.43,786a4.8,4.8,0,0,1-1.5,2.07c-6.18,5.67-29.29,14.1-43.57,18.68A101.092,101.092,0,0,1,763.93,810c-3.5.25-10.75-2-15.75-5.07s-.5-7.43,1.52-9.68,14-2.92,14-2.92c-5.75,9.57,8.49,1.17,8.49,1.17s28.75-20.5,31.75-22.75,8.5-3.5,8.5-3.5Z" transform="translate(-157.217 -78.874)"/><path class="c" d="M818.93,788.09c-6.18,5.67-29.29,14.1-43.57,18.68C788.3,795.81,810,790.08,818.93,788.09Z" transform="translate(-157.884 -78.874)"/><ellipse class="c" cx="17.03" cy="4.91" rx="17.03" ry="4.91" transform="translate(613.536 730.726)"/><rect class="b" width="17.5" height="129.5" transform="translate(621.422 606.136)"/><path class="c" d="M795.5,691.43v15c-3.5-1.08-11.49-5.63-17.5-9.21V685h3.65Z" transform="translate(-156.578 -73.835)"/><path class="d" d="M754.27,628.63s57.78-14.87,72.16-26,70.85,41.24,63.39,61S855.2,697.7,855.2,697.7s-75.11,12.22-87.9-13.27S754.27,628.63,754.27,628.63Z" transform="translate(-162.06 -73.042)"/><path class="c" d="M754.27,628.63s57.78-14.87,72.16-26,70.85,41.24,63.39,61S855.2,697.7,855.2,697.7s-75.11,12.22-87.9-13.27S754.27,628.63,754.27,628.63Z" transform="translate(-162.06 -73.042)"/><path class="d" d="M749.27,622.63s57.78-14.87,72.16-26,70.85,41.24,63.39,61S850.2,691.7,850.2,691.7s-75.11,12.22-87.9-13.27S749.27,622.63,749.27,622.63Z" transform="translate(-161.59 -72.806)"/><path class="i" d="M695.68,486.27,689.43,484s5.5-7.75,3.13-17.25c0,0-2.63-11.46-1.38-16.1s4.5-21.65,4.5-21.65.46-18-9.27-26.25-16.48-15-12.73-7a111.4,111.4,0,0,0,5.5,10.75s-23.25,5.57-15,14.29,10.5,8.71,10.5,8.71-2.75,21.5-3.25,25.5-5,34.5-5,34.5-.25,14.5,2.25,16.75a11.31,11.31,0,0,0,12,9C682.46,515.22,703.68,491.77,695.68,486.27Z" transform="translate(-147.858 -65.279)"/><path class="i" d="M846.68,440.27v14L832.18,459l-24.7,18.18L800.93,482l-29.25-11.75-18.5-19.5s.9-.49,2.46-1.3l1-.53c3.13-1.57,8.06-4,13.51-6.17s6.09-14.89,5.78-25.37v-1c-.25-7.35-1-13.36-1-13.36s3.05-.58,7.49-1.24c12.31-1.83,35.28-4.3,33.26,3.24a17.369,17.369,0,0,0,0,7.79c.06.28.12.57.19.85,2.08,9.09,8.52,18.61,8.52,18.61l20,7.2.56.2Z" transform="translate(-159.058 -64.779)"/><path class="i" d="M846.68,444.52v-4.25a14,14,0,0,1,4.75,0c1.75.5,5.07,5.75,6.57,6.25s10.68,34.75,9.68,37.75S857.23,555,857.23,555l-19.05,21-3.75-57.75L846.68,484Z" transform="translate(-162.244 -67.54)"/><path class="i" d="M747.93,601.77s-17.41,3.75-15.2,9.25,11.95,5.75,11.95,5.75Z" transform="translate(-152.703 -70.725)"/><path class="i" d="M772.18,490.72l-13.25,28.55-15.75,11.5L740.43,513s-5.32-11.75-7.61-13.74a1.149,1.149,0,0,0-.39-.26c-2-.75-21,11.25-26.5,13.5s-25.25,2.75-25.25,2.75L689.43,484s17.5-6.5,19.75-9.5,13.75-14.5,20.75-20S749.7,451,749.7,451l.2.08,3.28,1.42,9.5,23.25Z" transform="translate(-152.439 -66.688)"/><path class="i" d="M737.43,775.52a59.665,59.665,0,0,0-.19,7.84c.07,2.79.19,5.16.19,5.16l-5.75,12s-19.75,6.5-16.5,3.75c1.13-.95,1.71-3.42,2-6.69.49-6.18-.22-15.19-.71-22.06-.75-10.5-12.75-36.5-12.75-36.5s-10-25.5-16.25-41.25-4-44.25-4-44.25,1-21.5,5.5-28,22-8.75,22-8.75L719.18,644s6.75,25.5,9.25,29.25,1.75,48.5.75,53.25c-.51,2.43.35,12,1.31,20.72a97.309,97.309,0,0,0,6.08,24.2,9.24,9.24,0,0,1,.86,4.1Z" transform="translate(-150.602 -78.874)"/><path class="c" d="M737.43,788.52l-5.75,12s-19.75,6.5-16.5,3.75c1.13-.95,1.71-3.42,2-6.69.71-.71,1.47-1.49,2.25-2.29a50.489,50.489,0,0,1,17.85-11.93h0C737.31,786.15,737.43,788.52,737.43,788.52Z" transform="translate(-151.615 -78.874)"/><path class="j" d="M746.45,806.38a.59.59,0,0,1,0,.14c-1,4.75-17.5,11.25-17.5,11.25s-10.5,1.75-16.5,3.25a4.151,4.151,0,0,1-1.41.13c-4.63-.35-4.84-9.26-4.84-10.63s5.75-7.75,7.5-8.75a53.632,53.632,0,0,0,5.56-5.33,51.6,51.6,0,0,1,18.22-12.17h0S747.25,801.45,746.45,806.38Z" transform="translate(-151.827 -78.874)"/><path class="k" d="M746.45,806.38a.59.59,0,0,1,0,.14c-1,4.75-17.5,11.25-17.5,11.25s-10.5,1.75-16.5,3.25a4.151,4.151,0,0,1-1.41.13c-4.63-.35-4.84-9.26-4.84-10.63s5.75-7.75,7.5-8.75a53.011,53.011,0,0,0,5.64-5.41,50.568,50.568,0,0,1,17.86-12l.28-.11S747.25,801.45,746.45,806.38Z" transform="translate(-151.827 -78.874)"/><path class="c" d="M746.45,806.38a.59.59,0,0,1,0,.14c-1,4.75-17.5,11.25-17.5,11.25s-10.5,1.75-16.5,3.25a4.151,4.151,0,0,1-1.41.13c5.44-3.73,18.63-12.68,20.41-12.88S742,805.55,746.45,806.38Z" transform="translate(-151.975 -78.874)"/><path class="c" d="M815.91,413.66c-6.18,5.09-11.86,4.36-20.49,4.36-6.24,0-14.35,2.19-19.46-.62-.21-7.81-1-14.38-1-14.38s43.5-8.25,40.75,2a18.18,18.18,0,0,0,.2,8.64Z" transform="translate(-157.693 -63.691)"/><path class="i" d="M828.93,385.06a35.75,35.75,0,0,1-35.75,35.75,24.91,24.91,0,0,1-2.74-.1h0a35.75,35.75,0,1,1,38.5-35.65Z" transform="translate(-158.042 -62.667)"/><path class="c" d="M762.68,475.77l9.5,15-13.25,28.55-15.75,11.5L740.43,513s-5.32-11.75-7.61-13.74c.66-1.61,1.11-2.35,1.11-1.76,0,2.5,6.15,13.75,6.15,13.75,19-6.5,13.1-31.75,13.1-31.75s-2.36-22.5-3.28-28.42l3.28,1.42Z" transform="translate(-154.031 -66.696)"/><path class="c" d="M846.68,440.27v14L832.18,459l-24.7,18.18L800.93,482l-29.25-11.75-18.5-19.5s.9-.49,2.46-1.3l1-.53c12.87,5.85,26.8,8,36.75,8.77a111,111,0,0,0,13.76.31c37.67-6,38.79-15.1,37.85-18.33Z" transform="translate(-159.058 -65.522)"/><path class="l" d="M857.43,667a280.292,280.292,0,0,1-29,12.25c-17.25,6.25-55.25-2-60-3.25s-41.25-15.75-55.25-21.25-17.5-1-20.75-1.5-5.5-6.75-6-8.5,9-17,14.25-24.75,21-6.25,23.25-6.75,18,0,18,0-1-5,4.75-19-9.5-40-9.5-40c-10.5-6.75-8.75-27.75-8.75-27.75-2.5-9.25,5.5-30.5,5.5-28s6.15,13.75,6.15,13.75c19-6.5,13.1-31.75,13.1-31.75s-2.75-26.25-3.48-29.5,3.48-2.75,3.48-2.75q1.22.63,2.46,1.2c13.16,6.2,27.56,8.46,37.78,9.24a111,111,0,0,0,13.76.31c45.67-7.37,37.58-19.12,37.28-19.54l2.22.79c16.5,12,11.5,51.75,11.5,51.75L852,521.67l-4.59,22.1s16.25,98.5,17.75,103.5S857.43,667,857.43,667Z" transform="translate(-158.542 -70.6)"/><path class="c" d="M735.68,622c-1,.75-12.25,24-4,30.5S735.68,622,735.68,622Z" transform="translate(-152.002 -71.862)"/><path class="c" d="M743.68,625.27c.25.75,23.5,37.75,36.25,40.75Z" transform="translate(-154.774 -72.238)"/><path class="c" d="M799.69,332.48l-3.72.79a25.076,25.076,0,0,1,3.14-.93Z" transform="translate(-157.268 -61.081)"/><path class="c" d="M855.71,492l-7,29.65a36.219,36.219,0,0,1-9.72-6.51c-2.23-2.12-4.23-4.55-7.1-5.94-3.69-1.79-8.14-1.55-12.33-1.7a59.32,59.32,0,0,1-15.42-2.64,10.882,10.882,0,0,1-4-1.94c-2.38-2.1-2.22-5.49-2-8.45a129.58,129.58,0,0,0,.15-17.29c-.06-1.08-.14-2.16-.23-3.24-.4-4.83-1.7-10.43-6.64-12.5-2.54-1-5.57-.92-8-2.13a6.61,6.61,0,0,1-1-.62c-3.6-2.52-3.93-7.57-3.79-11.82q.32-8.76.61-17.53a50.948,50.948,0,0,0-.19-8.65h0a19.209,19.209,0,0,0-1.56-5.52c-2.17-4.64-6.69-8.51-7.5-13.41a5.424,5.424,0,0,1-.09-.69c-.42-4.38,2.34-8.46,3.31-12.77,1.94-8.67-4.58-18.17-14.17-20.66-3-.78-6.22-.93-9.21-1.82a14.794,14.794,0,0,1-1.41-.5c7.24-9.66,19.65-16,33.74-16,22.33,0,40.44,16,40.44,35.75,0,11.2-5.83,21.19-14.94,27.75.06.28.13.57.21.85,2.35,9.09,9.64,18.61,9.64,18.61l22.64,7.2,2.52.8C861.37,452.27,855.71,492,855.71,492Z" transform="translate(-159.583 -64.488)"/><path class="c" d="M868,520.72a3.4,3.4,0,0,1-.64-.09A1.33,1.33,0,0,1,868,520.72Z" transform="translate(-162.903 -67.565)"/><path class="d" d="M790.68,331.49a86,86,0,0,0-19.08-2.23c-2.09,0-4.33.11-6,1.26-2.21,1.55-2.49,4.35-3.15,6.77a18.78,18.78,0,0,1-7.15,10c-2.37,1.73-5.16,3-7.43,4.82s-4,4.52-3.43,7.18S748,364,751,364.85s6.19,1,9.21,1.82c9.59,2.49,16.1,12,14.16,20.65-1,4.31-3.73,8.39-3.31,12.77.49,5.23,5.32,9.26,7.59,14.11,2.07,4.42,1.93,9.38,1.77,14.16l-.61,17.54c-.16,4.62.24,10.18,4.8,12.44,2.44,1.2,5.48,1.07,8,2.13,4.94,2.06,6.24,7.67,6.64,12.49a129.1,129.1,0,0,1,.08,20.53c-.23,3-.39,6.35,2,8.45a10.72,10.72,0,0,0,4,1.94,59.32,59.32,0,0,0,15.42,2.64c4.2.16,8.64-.08,12.33,1.7,2.87,1.39,4.87,3.83,7.1,5.94a39.24,39.24,0,0,0,23.18,10.15c1.85.16,3.95.12,5.24-1.07s.53-3.76-1.31-3.61a8.89,8.89,0,0,0,8.42-3.22,7.1,7.1,0,0,0,0-8.17c-2.09-3-6.53-5-6.77-8.56-.13-2,1.2-3.81,2.24-5.59a23.51,23.51,0,0,0-3.64-28c-4.69-4.85-11.72-8.53-13.36-14.75-1.09-4.16.56-8.53-.07-12.76-1-7-7.93-12-11.74-18.24s-4.48-13.79-3.51-20.89,3.43-14,5.43-20.9c1.49-5.15,2.72-10.62,1.06-15.73-1.19-3.63-3.75-6.78-6.41-9.75-6.37-7.11-13.7-13.77-22.76-18s-20.1-5.87-29.72-2.74" transform="translate(-160.876 -64.068)"/><path class="c" d="M790.68,331.49a86,86,0,0,0-19.08-2.23c-2.09,0-4.33.11-6,1.26-2.21,1.55-2.49,4.35-3.15,6.77a18.78,18.78,0,0,1-7.15,10c-2.37,1.73-5.16,3-7.43,4.82s-4,4.52-3.43,7.18S748,364,751,364.85s6.19,1,9.21,1.82c9.59,2.49,16.1,12,14.16,20.65-1,4.31-3.73,8.39-3.31,12.77.49,5.23,5.32,9.26,7.59,14.11,2.07,4.42,1.93,9.38,1.77,14.16l-.61,17.54c-.16,4.62.24,10.18,4.8,12.44,2.44,1.2,5.48,1.07,8,2.13,4.94,2.06,6.24,7.67,6.64,12.49a129.1,129.1,0,0,1,.08,20.53c-.23,3-.39,6.35,2,8.45a10.72,10.72,0,0,0,4,1.94,59.32,59.32,0,0,0,15.42,2.64c4.2.16,8.64-.08,12.33,1.7,2.87,1.39,4.87,3.83,7.1,5.94a39.24,39.24,0,0,0,23.18,10.15c1.85.16,3.95.12,5.24-1.07s.53-3.76-1.31-3.61a8.89,8.89,0,0,0,8.42-3.22,7.1,7.1,0,0,0,0-8.17c-2.09-3-6.53-5-6.77-8.56-.13-2,1.2-3.81,2.24-5.59a23.51,23.51,0,0,0-3.64-28c-4.69-4.85-11.72-8.53-13.36-14.75-1.09-4.16.56-8.53-.07-12.76-1-7-7.93-12-11.74-18.24s-4.48-13.79-3.51-20.89,3.43-14,5.43-20.9c1.49-5.15,2.72-10.62,1.06-15.73-1.19-3.63-3.75-6.78-6.41-9.75-6.37-7.11-13.7-13.77-22.76-18s-20.1-5.87-29.72-2.74" transform="translate(-160.876 -64.068)"/><path class="c" d="M737.18,554.27s8.5,3.25,17.5-5.75S737.18,554.27,737.18,554.27Z" transform="translate(-153.3 -68.624)"/><g class="m" transform="translate(584.03 265.25)"><path d="M794.44,331.34a35.563,35.563,0,0,1,5-.63,37.932,37.932,0,0,0-7,.22Z" transform="translate(-744.18 -329.32)"/><path d="M844.58,514.16c-2.24-2.11-4.23-4.55-7.11-5.94-3.68-1.78-8.13-1.54-12.33-1.7a59,59,0,0,1-15.42-2.64,10.72,10.72,0,0,1-4-1.94c-2.38-2.1-2.21-5.48-2-8.45a129.117,129.117,0,0,0-.08-20.53c-.41-4.82-1.7-10.43-6.65-12.49-2.53-1.06-5.56-.93-8-2.13-4.56-2.26-5-7.82-4.81-12.44q.31-8.77.61-17.53c.17-4.79.3-9.75-1.77-14.17-2.27-4.85-7.1-8.87-7.59-14.11-.41-4.37,2.35-8.46,3.32-12.77,1.94-8.67-4.58-18.16-14.17-20.65-3-.78-6.22-.94-9.21-1.82s-5.89-2.78-6.51-5.5,1.15-5.36,3.42-7.19,5.06-3.09,7.44-4.82a18.71,18.71,0,0,0,7.14-10c.67-2.42,1-5.21,3.15-6.77a8,8,0,0,1,4.1-1.2c-.89,0-1.78-.05-2.66-.05-2.09,0-4.33.11-6,1.25-2.21,1.56-2.49,4.35-3.15,6.77a18.78,18.78,0,0,1-7.15,10c-2.37,1.73-5.16,3-7.43,4.82s-4,4.52-3.43,7.19,3.53,4.61,6.52,5.5,6.19,1,9.21,1.82c9.59,2.49,16.1,12,14.16,20.65-1,4.31-3.73,8.4-3.31,12.77.49,5.24,5.32,9.26,7.59,14.11,2.07,4.42,1.94,9.38,1.77,14.17q-.31,8.76-.61,17.53c-.16,4.62.24,10.18,4.8,12.44,2.44,1.2,5.48,1.07,8,2.13,4.94,2.06,6.24,7.67,6.64,12.49a129.1,129.1,0,0,1,.08,20.53c-.23,3-.39,6.35,2,8.45a10.72,10.72,0,0,0,4,1.94,58.911,58.911,0,0,0,15.42,2.64c4.2.16,8.64-.08,12.33,1.7,2.87,1.39,4.87,3.83,7.11,5.94a39.18,39.18,0,0,0,23.17,10.15,10.71,10.71,0,0,0,3.35-.13,39.11,39.11,0,0,1-21.94-10.02Z" transform="translate(-744.18 -329.32)"/></g><path class="c" d="M689.43,484s-8,7.34-6.83,10.34S689.43,484,689.43,484Z" transform="translate(-148.159 -66.504)"/><path class="d" d="M696.85,578.35c-5.77-1.41-21.68-2.71-29.25,22.68a112.32,112.32,0,0,1-6.71,17.17c-7.26,14.91-16.64,45.57,24.61,52.32l99,22.5s53,6.5,56.5,4,3-8,3-8-58.5,0-70-18-12-42.5-12-42.5,1.44-37.83-59-48.82C701,579.32,698.9,578.85,696.85,578.35Z" transform="translate(-156.101 -72.744)"/><path class="c" d="M696.85,578.52c-5.77-1.41-21.68-2.71-29.25,22.69a112.32,112.32,0,0,1-6.71,17.17c-7.26,14.9-16.64,45.56,24.61,52.31l99,22.5s53,6.5,56.5,4,3-8,3-8-58.5,0-70-18-12-42.5-12-42.5,1.44-37.83-59-48.82C701,579.49,698.9,579,696.85,578.52Z" transform="translate(-156.101 -72.751)"/><path class="d" d="M904.38,552.48a15.29,15.29,0,0,0-15.45-12.92c-14.24.26-58.07,2.16-78.43,15.46,0,0-15.5,10-20,10s-65.5,52,25,98.5c0,0,48.5,13.8,67.5-18.6,0,0,13.5-34.8,12.5-46.85s9-44.55,9-44.55S904.48,553.13,904.38,552.48Z" transform="translate(-163.336 -71.402)"/><path class="c" d="M904.38,561.24c-1.14-7-7.8-12.06-15.45-11.93-14.24.24-58.07,2-78.43,14.27,0,0-15.5,9.23-20,9.23s-65.5,48,25,90.93c0,0,48.5,12.74,67.5-17.17,0,0,13.5-32.13,12.5-43.25s9-41.12,9-41.12S904.48,561.84,904.38,561.24Z" transform="translate(-163.336 -71.509)"/><rect class="b" width="16" height="34.07" transform="translate(678.384 590.077)"/><ellipse class="c" cx="45.04" cy="2.89" rx="45.04" ry="2.89" transform="translate(125.2 451.559)"/><path class="j" d="M308.54,410.62a17.179,17.179,0,0,0-2.28,4.29c-.14.38-.28.8-.42,1.21a3.69,3.69,0,0,0-.79-.27,11.34,11.34,0,0,0-3.57-.31c0-.46.06-1,.07-1.46.15-5.27-.47-12.62-5.5-9.51-4.82,3-1.38,8,1.73,11.21l.8.78c-2.84,2-3.38,6.73-3.85,11.64s-4.64,10.29-7.41,13.34c-.28.31-.53.59-.78.85a10.11,10.11,0,0,0-8.05-2.07c-.11-.43-.24-.88-.37-1.36-2.24-8.08-6.89-22.09-12.82-25.16l.78-1c2.52-3.3,5.36-8.19,1.17-9.45s-4.57,4.25-4.34,8.37c0,.52.08,1,.12,1.46a6.17,6.17,0,0,0-4.38,2.14l-.65-.76c-3.4-4-9.63-10.37-11.52-5.56-1.76,4.48,3.73,10.29,7.59,13.66l.24.21C251.72,433.4,263,442,269.12,445.72l.79.48c-8.4,9.9-13.59,28.45-13.59,28.45l23.52,4.2s15.6-13.45,13.6-26.09h.16c15.59-3.12,19.13-19.74,16.7-29.61l.28-.11a17.74,17.74,0,0,0,7.22-5.46C322.16,411.51,313,404.67,308.54,410.62Z" transform="translate(-104.724 -64.784)"/><path class="c" d="M308.54,410.62a17.179,17.179,0,0,0-2.28,4.29c-.14.38-.28.8-.42,1.21a3.69,3.69,0,0,0-.79-.27,11.34,11.34,0,0,0-3.57-.31c0-.46.06-1,.07-1.46.15-5.27-.47-12.62-5.5-9.51-4.82,3-1.38,8,1.73,11.21l.8.78c-2.84,2-3.38,6.73-3.85,11.64s-4.64,10.29-7.41,13.34c-.28.31-.53.59-.78.85a10.11,10.11,0,0,0-8.05-2.07c-.11-.43-.24-.88-.37-1.36-2.24-8.08-6.89-22.09-12.82-25.16l.78-1c2.52-3.3,5.36-8.19,1.17-9.45s-4.57,4.25-4.34,8.37c0,.52.08,1,.12,1.46a6.17,6.17,0,0,0-4.38,2.14l-.65-.76c-3.4-4-9.63-10.37-11.52-5.56-1.76,4.48,3.73,10.29,7.59,13.66l.24.21C251.72,433.4,263,442,269.12,445.72l.79.48c-8.4,9.9-13.59,28.45-13.59,28.45l23.52,4.2s15.6-13.45,13.6-26.09h.16c15.59-3.12,19.13-19.74,16.7-29.61l.28-.11a17.74,17.74,0,0,0,7.22-5.46C322.16,411.51,313,404.67,308.54,410.62Z" transform="translate(-104.724 -64.784)"/><path class="j" d="M261.72,417.4,259,425.45s-1.53-1.08-3.46-2.78c-3.86-3.37-9.35-9.18-7.59-13.66,1.89-4.81,8.12,1.54,11.52,5.56C260.81,416.16,261.72,417.4,261.72,417.4Z" transform="translate(-100.5 -63.94)"/><path class="j" d="M267.52,412.81a38.9,38.9,0,0,1-2.68,3.15,42.219,42.219,0,0,1-.49-4.23c-.23-4.12.21-9.59,4.34-8.37S270,409.51,267.52,412.81Z" transform="translate(-100.5 -63.71)"/><path class="j" d="M303,414.08c-.08,2.65-.34,4.76-.34,4.76a34,34,0,0,1-3.43-3.06c-3.11-3.23-6.55-8.21-1.73-11.21C302.52,401.46,303.14,408.81,303,414.08Z" transform="translate(-116.452 -63.768)"/><path class="j" d="M319.24,417.55A17.74,17.74,0,0,1,312,423a20.18,20.18,0,0,1-2.42.87l-3.24-4.55a33.051,33.051,0,0,1,1.34-4.42,17.181,17.181,0,0,1,2.28-4.29C314.46,404.67,323.6,411.51,319.24,417.55Z" transform="translate(-117.478 -63.935)"/><path class="c" d="M259.44,414.57c1.37,1.59,2.28,2.83,2.28,2.83L259,425.45s-1.53-1.08-3.46-2.78a15.75,15.75,0,0,1,3.1-7.07A9.385,9.385,0,0,1,259.44,414.57Z" transform="translate(-100.5 -64.078)"/><path class="c" d="M267.52,412.81a38.9,38.9,0,0,1-2.68,3.15,42.219,42.219,0,0,1-.49-4.23,5.46,5.46,0,0,1,3.17,1.08Z" transform="translate(-100.5 -63.873)"/><path class="j" d="M281,444.77l-6.84,3s-1.49-.72-3.64-2.06c-7.19-4.43-21.64-15.56-11.95-28.68s17.77,10.42,20.95,21.92C280.53,442.4,281,444.77,281,444.77Z" transform="translate(-100.5 -64.423)"/><path class="c" d="M299.22,415.78a5.57,5.57,0,0,1,3.77-1.7c-.08,2.65-.34,4.76-.34,4.76a34,34,0,0,1-3.43-3.06Z" transform="translate(-116.722 -63.963)"/><path class="c" d="M312,423a20.185,20.185,0,0,1-2.42.87l-3.24-4.55a33.051,33.051,0,0,1,1.34-4.42C309.79,416.14,311.33,419.17,312,423Z" transform="translate(-117.335 -64.059)"/><path class="j" d="M295,452.73l-1.15.2c-22.93,3.49-7.56-8.88-7.56-8.88s1-.95,2.43-2.51c2.77-3.05,6.93-8.4,7.41-13.34.72-7.43,1.55-14.4,10.32-12.35C315.1,417.86,316.75,448.38,295,452.73Z" transform="translate(-115.672 -64.566)"/><rect class="d" width="43.81" height="11.52" transform="translate(146.081 442.389)"/><rect class="d" width="57.24" height="40.2" transform="translate(139.255 405.701)"/><rect class="c" width="43.81" height="11.52" transform="translate(145.673 442.389)"/><rect class="c" width="57.24" height="40.2" transform="translate(139.081 405.71)"/><rect class="d" width="43.81" height="11.52" transform="translate(148.88 442.389)"/><path class="c" d="M279.56,439c1,3.44,1.48,5.81,1.48,5.81l-6.84,3s-1.49-.72-3.64-2.06C273.24,442.32,276.26,439.75,279.56,439Z" transform="translate(-100.5 -64.897)"/><path class="c" d="M295,452.73l-1.15.2c-22.93,3.49-7.56-8.88-7.56-8.88s1-.95,2.43-2.51C293,445,294.81,448.83,295,452.73Z" transform="translate(-105.41 -65.041)"/><path class="j" d="M257.76,474.65s12.84-46,30.85-31.8-7.33,36-7.33,36Z" transform="translate(-104.883 -65.471)"/><circle class="c" cx="1.44" cy="1.44" r="1.44" transform="translate(162.3 358.565)"/><circle class="c" cx="1.44" cy="1.44" r="1.44" transform="translate(162.18 365.062)"/><circle class="c" cx="1.44" cy="1.44" r="1.44" transform="translate(187.316 359.839)"/><circle class="c" cx="1.44" cy="1.44" r="1.44" transform="translate(170.34 393.097)"/><circle class="c" cx="1.44" cy="1.44" r="1.44" transform="translate(184.561 370.622)"/><circle class="c" cx="1.44" cy="1.44" r="1.44" transform="translate(181.074 384.987)"/><circle class="c" cx="1.44" cy="1.44" r="1.44" transform="translate(167.22 361.345)"/><circle class="c" cx="1.44" cy="1.44" r="1.44" transform="translate(183.679 364.019)"/><circle class="c" cx="1.44" cy="1.44" r="1.44" transform="translate(189.833 374.793)"/><circle class="c" cx="1.44" cy="1.44" r="1.44" transform="translate(179.94 392.054)"/><circle class="c" cx="1.44" cy="1.44" r="1.44" transform="translate(176.82 385.219)"/><circle class="c" cx="1.44" cy="1.44" r="1.44" transform="translate(169.38 369.811)"/><rect class="c" width="43.81" height="4.21" transform="translate(148.88 442.536)"/><rect class="d" width="57.24" height="40.2" transform="translate(142.053 405.701)"/><circle class="c" cx="1.44" cy="1.44" r="1.44" transform="translate(181.86 398.31)"/><circle class="c" cx="1.44" cy="1.44" r="1.44" transform="translate(173.22 400.047)"/><path class="j" d="M412.39,626s7.13,9.33-3.29,23.41-19,26-15.56,34.76c0,0,15.74-26.16,28.55-26.52S426.48,641.74,412.39,626Z" transform="translate(-125.147 -72.756)"/><path class="c" d="M412.39,626a11.492,11.492,0,0,1,1.46,2.92c12.49,14.68,19.15,28.38,7.14,28.73C409.8,658,396.38,678,393.16,683c.11.39.24.78.38,1.15,0,0,15.74-26.16,28.55-26.52S426.48,641.74,412.39,626Z" transform="translate(-125.17 -72.756)"/><path class="n" d="M425.65,637.9c0,3.28-.37,5.94-.82,5.94s-.82-2.66-.82-5.94.46-1.74.91-1.74S425.65,634.61,425.65,637.9Z" transform="translate(-126.852 -71.74)"/><path class="n" d="M430.2,641.82c-2.88,1.57-5.39,2.52-5.61,2.12s1.94-2,4.83-3.57,1.74-.43,2,0S433.09,640.25,430.2,641.82Z" transform="translate(-127.052 -71.779)"/><path class="j" d="M374.7,626s-7.13,9.33,3.29,23.41,19,26,15.55,34.76c0,0-15.73-26.16-28.54-26.52S360.61,641.74,374.7,626Z" transform="translate(-122.273 -72.756)"/><path class="c" d="M374.7,626a11.493,11.493,0,0,0-1.46,2.92c-12.49,14.68-19.15,28.38-7.14,28.73C377.29,658,390.71,678,393.93,683a11.091,11.091,0,0,1-.39,1.15S377.81,658,365,657.66,360.61,641.74,374.7,626Z" transform="translate(-122.264 -72.756)"/><path class="n" d="M361.44,637.9c0,3.28.37,5.94.82,5.94s.82-2.66.82-5.94-.46-1.74-.91-1.74S361.44,634.61,361.44,637.9Z" transform="translate(-121.755 -71.74)"/><path class="n" d="M356.89,641.82c2.88,1.57,5.39,2.52,5.61,2.12s-1.94-2-4.83-3.57-1.74-.43-2,0S354,640.25,356.89,641.82Z" transform="translate(-121.359 -71.779)"/><ellipse class="a" cx="74.6" cy="11.45" rx="74.6" ry="11.45" transform="translate(197.557 653.786)"/><path class="o" d="M431.94,671.61l-.36,2.91-.5,4.12-.2,1.71-.51,4.12-.21,1.72-.5,4.11L424,737.1c-.51,4.18-7.34,7.43-15.57,7.43H378.71c-8.24,0-15-3.25-15.56-7.43l-5.72-46.8-.5-4.11-.21-1.72-.51-4.12-.2-1.71-.5-4.12-.36-2.91c-.29-2.36,3.4-4.36,8.07-4.36h60.66C428.53,667.25,432.23,669.25,431.94,671.61Z" transform="translate(-122.932 -78.874)"/><path class="p" d="M331.08,623.15l-.5,4.11H255.51l-.5-4.11Z" transform="translate(-22.447 -21.611)"/><path class="p" d="M330.38,628.98l-.5,4.12H256.22l-.51-4.12Z" transform="translate(-22.475 -21.814)"/><path class="p" d="M329.66,634.81l-.5,4.12H256.93l-.5-4.12Z" transform="translate(-22.503 -22.016)"/></svg>