<svg xmlns="http://www.w3.org/2000/svg" xmlns:xlink="http://www.w3.org/1999/xlink" width="613.579" height="457.648" viewBox="0 0 613.579 457.648">
  <defs>
    <linearGradient id="linear-gradient" x1="0.5" x2="0.5" y2="1" gradientUnits="objectBoundingBox">
      <stop offset="0" stop-color="#0dd3de"/>
      <stop offset="0.65" stop-color="#6d93d0"/>
      <stop offset="1" stop-color="#4094ec"/>
    </linearGradient>
    <radialGradient id="radial-gradient" cx="0.5" cy="0.5" r="0.695" gradientTransform="translate(0 0)" gradientUnits="objectBoundingBox">
      <stop offset="0" stop-color="#26e95a"/>
      <stop offset="1" stop-color="#7787e0"/>
    </radialGradient>
    <linearGradient id="linear-gradient-2" x1="0.5" x2="0.5" y2="0.624" gradientUnits="objectBoundingBox">
      <stop offset="0" stop-color="#0dd3de"/>
      <stop offset="1" stop-color="#7787e0"/>
    </linearGradient>
  </defs>
  <g id="surface1" transform="translate(0 -0.414)">
    <path id="Path_77" data-name="Path 77" d="M0,554.273H613.579v.306H0Zm0,0" transform="translate(0 -151.686)" fill="#ebebeb"/>
    <path id="Path_78" data-name="Path 78" d="M490.453,565.793H521.7v.306H490.453Zm0,0" transform="translate(-134.321 -154.841)" fill="#ebebeb"/>
    <path id="Path_79" data-name="Path 79" d="M667.734,574.945h74.037v.306H667.734Zm0,0" transform="translate(-182.873 -157.348)" fill="#ebebeb"/>
    <path id="Path_80" data-name="Path 80" d="M375.957,566h76.49v.306h-76.49Zm0,0" transform="translate(-102.964 -154.897)" fill="#ebebeb"/>
    <path id="Path_81" data-name="Path 81" d="M285.609,578.652h16v.306h-16Zm0,0" transform="translate(-78.22 -158.363)" fill="#ebebeb"/>
    <path id="Path_82" data-name="Path 82" d="M329.059,578.652h72.868v.306H329.059Zm0,0" transform="translate(-90.12 -158.363)" fill="#ebebeb"/>
    <path id="Path_83" data-name="Path 83" d="M88.656,571.512h47.184v.306H88.656Zm0,0" transform="translate(-24.28 -156.407)" fill="#ebebeb"/>
    <path id="Path_84" data-name="Path 84" d="M308.522,347.8H71.569a7.011,7.011,0,0,1-6.995-7.014V7.366A7.011,7.011,0,0,1,71.569.414H308.522a7.011,7.011,0,0,1,7.006,7.015V340.787A7.01,7.01,0,0,1,308.522,347.8ZM71.569.661a6.7,6.7,0,0,0-6.688,6.705V340.787a6.706,6.706,0,0,0,6.688,6.708H308.522a6.717,6.717,0,0,0,6.7-6.708V7.366a6.714,6.714,0,0,0-6.7-6.705Zm0,0" transform="translate(-17.685)" fill="#ebebeb"/>
    <path id="Path_85" data-name="Path 85" d="M674.076,347.8H437.111a7.022,7.022,0,0,1-7.006-7.014V7.366A7.021,7.021,0,0,1,437.111.414H674.076a7.011,7.011,0,0,1,6.983,6.952V340.787A7.013,7.013,0,0,1,674.076,347.8ZM437.111.661a6.714,6.714,0,0,0-6.7,6.705V340.787a6.717,6.717,0,0,0,6.7,6.708H674.076a6.715,6.715,0,0,0,6.7-6.708V7.366a6.711,6.711,0,0,0-6.7-6.705Zm0,0" transform="translate(-117.793)" fill="#ebebeb"/>
    <path id="Path_86" data-name="Path 86" d="M298.574,385.991H217.091l-4.946-57.12H293.63Zm0,0" transform="translate(-58.1 -89.955)" fill="#e6e6e6"/>
    <path id="Path_87" data-name="Path 87" d="M304.387,385.991H222.905l-4.944-57.12h81.483Zm0,0" transform="translate(-59.693 -89.955)" fill="#f0f0f0"/>
    <path id="Path_88" data-name="Path 88" d="M239.086,378.361l-2.723-32.588h56.979l2.723,32.588Zm0,0" transform="translate(-64.733 -94.584)" fill="#fff"/>
    <path id="Path_89" data-name="Path 89" d="M343.238,407.535H352.8v106.54h-9.559Zm0,0" transform="translate(-94.003 -111.499)" fill="#e6e6e6" opacity="0.35"/>
    <path id="Path_90" data-name="Path 90" d="M351.418,407.535h6.64v106.54h-6.64Zm0,0" transform="translate(-96.243 -111.499)" fill="#f0f0f0" opacity="0.35"/>
    <path id="Path_91" data-name="Path 91" d="M325.659,419.292H233.117V407.535h92.542Zm0,0" transform="translate(-63.844 -111.499)" fill="#f0f0f0"/>
    <path id="Path_92" data-name="Path 92" d="M224.449,423.742h9.559v94.782h-9.559Zm0,0" transform="translate(-61.47 -115.937)" fill="#e6e6e6" opacity="0.35"/>
    <path id="Path_93" data-name="Path 93" d="M232.629,423.742h6.638v94.782h-6.638Zm0,0" transform="translate(-63.71 -115.937)" fill="#f0f0f0" opacity="0.35"/>
    <path id="Path_94" data-name="Path 94" d="M130.738,423.742H140.3v94.782h-9.559Zm0,0" transform="translate(-35.805 -115.937)" fill="#e6e6e6" opacity="0.4"/>
    <path id="Path_95" data-name="Path 95" d="M138.918,423.742h6.64v94.782h-6.64Zm0,0" transform="translate(-38.046 -115.937)" fill="#f0f0f0" opacity="0.35"/>
    <path id="Path_96" data-name="Path 96" d="M259.922,423.742h9.559v94.782h-9.559Zm0,0" transform="translate(-71.185 -115.937)" fill="#e6e6e6" opacity="0.35"/>
    <path id="Path_97" data-name="Path 97" d="M268.086,423.742h6.638v94.782h-6.638Zm0,0" transform="translate(-73.421 -115.937)" fill="#f0f0f0" opacity="0.35"/>
    <path id="Path_98" data-name="Path 98" d="M130.738,407.535h74.34v11.757h-74.34Zm0,0" transform="translate(-35.805 -111.499)" fill="#e6e6e6" opacity="0.35"/>
    <path id="Path_99" data-name="Path 99" d="M218.871,41.707H506.432V201.963H218.871Zm0,0" transform="translate(-59.943 -11.309)" fill="none"/>
    <path id="Path_100" data-name="Path 100" d="M220.867,41.707H522.772V201.963H220.867Zm0,0" transform="translate(-60.489 -11.309)" fill="none"/>
    <path id="Path_101" data-name="Path 101" d="M519.7,48.508V198.887H227.66V48.508Zm0,0" transform="translate(-62.35 -13.171)" fill="none" opacity="0.24"/>
    <path id="Path_102" data-name="Path 102" d="M356.188,198.887,411.325,48.508h-91L265.2,198.887Zm0,0" transform="translate(-72.629 -13.171)" fill="none" opacity="0"/>
    <path id="Path_103" data-name="Path 103" d="M485.233,198.887,540.368,48.508H471.721L416.586,198.887Zm0,0" transform="translate(-114.091 -13.171)" fill="none" opacity="0"/>
    <path id="Path_105" data-name="Path 105" d="M729.01,549.826h6.43V538.035H722.273Zm0,0" transform="translate(-197.81 -147.239)" fill="#fafafa"/>
    <path id="Path_110" data-name="Path 110" d="M428.727,549.826H422.3V538.035h13.167Zm0,0" transform="translate(-115.655 -147.239)" fill="#fafafa"/>
    <path id="Path_115" data-name="Path 115" d="M193.127,371.367v2.973h-1.889l-1.571,23.29H166.547l-1.56-23.29h-1.9v-2.973Zm0,0" transform="translate(-44.665 -101.593)" fill="#e6e6e6" opacity="0.35"/>
    <path id="Path_116" data-name="Path 116" d="M166,281.62c-1.889-13.878-20.6-17.835-44.348-18.351-22.592-.479-29.833-8.475-29.833-8.475s.074,32.392,32.63,44.135C155.358,310.058,167.9,295.527,166,281.62Zm0,0" transform="translate(-25.146 -69.667)" fill="none"/>
    <path id="Path_117" data-name="Path 117" d="M178.074,328.958c.391-5.7,9.5-16.188,31.4-11.423,15.83,3.452,21.721-4.765,21.721-4.765s-1.475,23.19-25.281,30.157C183.3,349.547,177.373,339.006,178.074,328.958Zm0,0" transform="translate(-48.754 -85.545)" fill="#e6e6e6"/>
    <path id="Path_118" data-name="Path 118" d="M182.622,357.06a.848.848,0,0,0,.652-.295c1.583-1.881.281-6.376-1.509-12.606-2.309-7.984-5.179-17.932-2.751-25.144a101.328,101.328,0,0,1,4.714-11.153c3.435-7.272,6.405-13.513,3.925-20.122a.847.847,0,1,0-1.582.6c2.22,5.883-.465,11.581-3.878,18.806a105.007,105.007,0,0,0-4.785,11.325c-2.589,7.715.354,17.946,2.723,26.152,1.4,4.913,2.848,9.828,1.852,11.057a.839.839,0,0,0,.1,1.228A.81.81,0,0,0,182.622,357.06Zm0,0" transform="translate(-48.311 -78.539)" fill="#e6e6e6"/>
    <path id="Path_119" data-name="Path 119" d="M570.694,606.276c0-7.679-106.528-13.9-237.935-13.9S94.824,598.6,94.824,606.276s106.528,13.907,237.935,13.907S570.694,613.957,570.694,606.276Zm0,0" transform="translate(-25.97 -162.12)" fill="#f5f5f5" opacity="0.35"/>
    <path id="Path_120" data-name="Path 120" d="M353.113,412.351H178.856L169.32,131.824H343.577Zm0,0" transform="translate(-46.372 -35.989)" fill="#407bff"/>
    <path id="Path_121" data-name="Path 121" d="M365.089,400.356H190.833l-9.548-280.524H355.542Zm0,0" transform="translate(-49.649 -32.705)" fill="#407bff"/>
    <g id="Group_1" data-name="Group 1" transform="translate(131.636 87.127)">
      <path id="Path_122" data-name="Path 122" d="M365.089,400.356H190.833l-9.548-280.524H355.542Zm0,0" transform="translate(-181.285 -119.832)" fill="url(#linear-gradient)"/>
    </g>
    <path id="Path_123" data-name="Path 123" d="M320.326,177.7c-19.637-19.324-50.681-19.588-69.339-.59s-17.863,50.066,1.773,69.39,50.682,19.586,69.339.587S339.962,197.02,320.326,177.7Zm0,0" transform="translate(-65.043 -44.536)" fill="#407bff"/>
    <path id="Path_124" data-name="Path 124" d="M330.237,215.348A39.366,39.366,0,0,1,326,234.633a38.766,38.766,0,0,1-34.851,21.2,42.039,42.039,0,0,1-36.276-21.2,41.181,41.181,0,0,1-5.545-19.285A38.843,38.843,0,0,1,288.4,174.813,42.184,42.184,0,0,1,330.237,215.348Zm0,0" transform="translate(-68.275 -47.762)" fill="#fff"/>
    <g id="Group_2" data-name="Group 2" transform="translate(186.578 176.071)">
      <path id="Path_125" data-name="Path 125" d="M328.073,253.122a38.761,38.761,0,0,1-34.851,21.2,42.034,42.034,0,0,1-36.272-21.2,62.046,62.046,0,0,1,35.217-10.8A65.586,65.586,0,0,1,328.073,253.122Zm0,0" transform="translate(-256.949 -242.323)" fill="#407bff"/>
    </g>
    <g id="Group_3" data-name="Group 3" transform="translate(202.998 135.666)">
      <path id="Path_126" data-name="Path 126" d="M310.02,192.071c-7.221-7.105-18.635-7.2-25.5-.215s-6.569,18.411.652,25.516,18.635,7.2,25.5.216S317.239,199.177,310.02,192.071Zm0,0" transform="translate(-279.563 -186.679)" fill="#407bff"/>
    </g>
    <path id="Path_127" data-name="Path 127" d="M343.992,357.919H232.835l-.749-22.11H343.243Zm0,0" transform="translate(-63.562 -91.855)" fill="#fff"/>
    <path id="Path_128" data-name="Path 128" d="M345.847,412.341H234.679l-.749-22.111H345.1Zm0,0" transform="translate(-64.067 -106.759)" fill="#fff"/>
    <path id="Path_129" data-name="Path 129" d="M318.249,394.419l-26.79,3.684a1.867,1.867,0,0,0-1.619,2.212l3.522,17.972a2.159,2.159,0,0,0,2.38,1.682l26.79-3.684a1.877,1.877,0,0,0,1.605-2.223l-3.509-17.972A2.146,2.146,0,0,0,318.249,394.419Zm-7.7,18.2-4.91.653-.476-5.8a3.438,3.438,0,0,1-2-2.459,3.056,3.056,0,0,1,2.649-3.684,3.511,3.511,0,0,1,3.878,2.74,3,3,0,0,1-.956,2.862Zm0,0" transform="translate(-79.369 -107.901)" fill="#407bff"/>
    <path id="Path_130" data-name="Path 130" d="M316.006,387.5a1.915,1.915,0,0,1-2.11-1.486l-.343-1.756a10.1,10.1,0,0,0-10.577-8.059,8.594,8.594,0,0,0-7.928,10.305l.391,2.028A1.648,1.648,0,0,1,294,390.5a1.892,1.892,0,0,1-2.11-1.486l-.332-1.708a12.1,12.1,0,0,1,9.817-14.435,13.747,13.747,0,0,1,15.708,10.651l.391,2.014a1.645,1.645,0,0,1-1.473,1.966Zm0,0" transform="translate(-79.779 -101.952)" fill="#407bff"/>
    <path id="Path_131" data-name="Path 131" d="M335.318,457.9H262.952l-.479-14.4h72.354Zm0,0" transform="translate(-71.884 -121.349)" fill="#407bff"/>
    <path id="Path_132" data-name="Path 132" d="M311.66,349.511a3.878,3.878,0,0,1-3.9,4.039,4.223,4.223,0,0,1-4.184-4.039,3.878,3.878,0,0,1,3.9-4.042A4.209,4.209,0,0,1,311.66,349.511Zm0,0" transform="translate(-83.139 -94.501)" fill="#263238"/>
    <path id="Path_133" data-name="Path 133" d="M287.633,349.511a3.866,3.866,0,0,1-3.9,4.039,4.213,4.213,0,0,1-4.172-4.039,3.878,3.878,0,0,1,3.9-4.042A4.2,4.2,0,0,1,287.633,349.511Zm0,0" transform="translate(-76.562 -94.501)" fill="#263238"/>
    <path id="Path_134" data-name="Path 134" d="M263.754,349.511a3.878,3.878,0,0,1-3.9,4.039,4.2,4.2,0,0,1-4.172-4.039,3.878,3.878,0,0,1,3.9-4.042A4.2,4.2,0,0,1,263.754,349.511Zm0,0" transform="translate(-70.022 -94.501)" fill="#263238"/>
    <path id="Path_135" data-name="Path 135" d="M335.613,349.524a3.878,3.878,0,0,1-3.9,4.039,4.2,4.2,0,0,1-4.172-4.039,3.868,3.868,0,0,1,3.915-4A4.2,4.2,0,0,1,335.613,349.524Zm0,0" transform="translate(-89.703 -94.515)" fill="#263238"/>
    <path id="Path_136" data-name="Path 136" d="M359.558,349.511a3.865,3.865,0,0,1-3.9,4.039,4.213,4.213,0,0,1-4.172-4.039,3.878,3.878,0,0,1,3.9-4.042A4.2,4.2,0,0,1,359.558,349.511Zm0,0" transform="translate(-96.26 -94.501)" fill="#263238"/>
    <path id="Path_137" data-name="Path 137" d="M560.083,202.2c1.631,2.629,2.992,5.134,4.393,7.752s2.663,5.245,3.9,7.934a113.433,113.433,0,0,1,6.261,16.865c.221.726.38,1.5.564,2.25l.269,1.143.136.565.158.933a16.816,16.816,0,0,1-.38,6.339,36.009,36.009,0,0,1-3.83,9.151,72.854,72.854,0,0,1-10.9,14.287l-5.166-3.906a137.773,137.773,0,0,0,6.91-14.741,30.621,30.621,0,0,0,1.875-6.918,5.507,5.507,0,0,0-.1-2.173l-.491-1.5c-.2-.616-.38-1.229-.615-1.855a139.031,139.031,0,0,0-6.468-14.84c-2.453-4.913-5.091-9.826-7.729-14.52Zm0,0" transform="translate(-150.322 -55.263)" fill="#ff8b7b"/>
    <path id="Path_138" data-name="Path 138" d="M557.668,287.039l-5.645,2.984,6.479,7.591s4.05-2.737,4.232-6.916Zm0,0" transform="translate(-151.183 -78.498)" fill="#ff8b7b"/>
    <path id="Path_139" data-name="Path 139" d="M541.594,295.829l6.935,5.514,7.116-2.6-6.479-7.591Zm0,0" transform="translate(-148.327 -79.624)" fill="#ff8b7b"/>
    <path id="Path_140" data-name="Path 140" d="M508.32,146.31c-.136.686-.615,1.165-1.058,1.08s-.7-.726-.564-1.4.616-1.228,1.07-1.08S508.453,145.621,508.32,146.31Zm0,0" transform="translate(-138.76 -39.566)" fill="#263238"/>
    <path id="Path_141" data-name="Path 141" d="M506.508,148.473a24.961,24.961,0,0,1-4.442,5.182,4.03,4.03,0,0,0,3.14,1.229Zm0,0" transform="translate(-137.502 -40.549)" fill="#ff5652"/>
    <path id="Path_142" data-name="Path 142" d="M505.141,178.622v-8.056l10.651,1.229s-.171,6.927-6.136,8.965Zm0,0" transform="translate(-138.344 -46.6)" fill="#ff8b7b"/>
    <path id="Path_143" data-name="Path 143" d="M508.228,162.578l7.5,2.165.137,4.924-10.654-1.288Zm0,0" transform="translate(-138.362 -44.412)" fill="#ff8b7b"/>
    <g id="Group_4" data-name="Group 4" transform="translate(368.405 118.166)">
      <path id="Path_144" data-name="Path 144" d="M516.313,164.743l-7.5-2.165-1.461,2.8a11.947,11.947,0,0,0,6.922,10.415,11.75,11.75,0,0,0,2.173-6.141Zm0,0" transform="translate(-507.355 -162.578)"/>
    </g>
    <path id="Path_145" data-name="Path 145" d="M512.112,141.554a.42.42,0,0,0,.309-.689,4.071,4.071,0,0,0-3.485-1.351.405.405,0,0,0-.333.465.415.415,0,0,0,.465.343,3.227,3.227,0,0,1,2.751,1.1A.425.425,0,0,0,512.112,141.554Zm0,0" transform="translate(-139.29 -38.089)" fill="#263238"/>
    <path id="Path_146" data-name="Path 146" d="M527.877,163.969c-1.225,6.325-1.985,15.084,2.457,19.3,0,0-1.719,6.413-13.5,6.413-12.9,0-6.2-5.627-6.2-5.627,5.364-1.671,5.312-7.775,4.087-12.688Zm0,0" transform="translate(-139.372 -44.793)" fill="#ff8b7b"/>
    <path id="Path_147" data-name="Path 147" d="M532.889,193.042c1.155-1.622,1.106-6.768-.122-7.678-1.974-1.461-10.455-1.8-21.866.823,1.225,4.989-1.4,7.593-1.4,7.593Zm0,0" transform="translate(-139.538 -50.344)" fill="#407bff"/>
    <path id="Path_148" data-name="Path 148" d="M593.628,597.3a2.814,2.814,0,0,1-2.162-.125.836.836,0,0,1-.2-.944.944.944,0,0,1,.527-.6c1.166-.568,3.841.527,3.965.575a.2.2,0,0,1,.122.184.228.228,0,0,1-.11.2A11.961,11.961,0,0,1,593.628,597.3Zm-1.412-1.39a1.051,1.051,0,0,0-.233.088.506.506,0,0,0-.317.343c-.11.369,0,.491.071.528.468.394,2.186,0,3.4-.454A6.734,6.734,0,0,0,592.215,595.907Zm0,0" transform="translate(-161.913 -162.967)" fill="#407bff"/>
    <path id="Path_149" data-name="Path 149" d="M596.23,595.714h-.1c-.982-.283-3.069-1.77-3.092-2.74a.674.674,0,0,1,.528-.664,1.059,1.059,0,0,1,.9.074c1.152.59,1.889,2.972,1.912,3.083a.185.185,0,0,1,0,.2A.162.162,0,0,1,596.23,595.714Zm-2.457-3.06h-.1c-.247.088-.247.21-.247.272,0,.576,1.4,1.744,2.454,2.21a5.1,5.1,0,0,0-1.568-2.456.708.708,0,0,0-.528-.025Zm0,0" transform="translate(-162.416 -162.085)" fill="#407bff"/>
    <path id="Path_150" data-name="Path 150" d="M505.755,599.2c-1.1,0-2.17-.161-2.528-.652a.777.777,0,0,1,0-.9,1.017,1.017,0,0,1,.65-.48c1.438-.394,4.456,1.328,4.578,1.4a.181.181,0,0,1,.1.207.2.2,0,0,1-.159.174A15.267,15.267,0,0,1,505.755,599.2Zm-1.361-1.685a1.311,1.311,0,0,0-.391,0,.641.641,0,0,0-.406.284c-.147.258-.085.38,0,.454.406.564,2.578.579,4.184.343A9.388,9.388,0,0,0,504.394,597.512Zm0,0" transform="translate(-137.781 -163.418)" fill="#407bff"/>
    <path id="Path_151" data-name="Path 151" d="M509.233,598.177h-.085c-1.044-.468-3.106-2.334-2.944-3.316,0-.235.2-.516.76-.567a1.484,1.484,0,0,1,1.129.346,5.876,5.876,0,0,1,1.35,3.327.241.241,0,0,1-.085.184A.244.244,0,0,1,509.233,598.177Zm-2.11-3.5H507c-.369,0-.394.171-.394.221-.1.59,1.3,2.062,2.368,2.7a4.731,4.731,0,0,0-1.14-2.664,1.071,1.071,0,0,0-.723-.258Zm0,0" transform="translate(-138.632 -162.644)" fill="#407bff"/>
    <path id="Path_152" data-name="Path 152" d="M519.848,591.809h-8.626l-.86-20.008h8.626Zm0,0" transform="translate(-139.774 -156.487)" fill="#ff8b7b"/>
    <path id="Path_153" data-name="Path 153" d="M604.3,586.83l-8.43,1.83L587.4,570.013l8.441-1.818Zm0,0" transform="translate(-160.871 -155.499)" fill="#ff8b7b"/>
    <path id="Path_154" data-name="Path 154" d="M593.312,594.432l9.488-2.051a.751.751,0,0,1,.834.417l3.288,7.151a1.226,1.226,0,0,1-.908,1.767c-3.313.653-4.97.811-9.131,1.708-2.564.567-8.356,1.979-11.9,2.74s-4.763-2.641-3.376-3.268c6.2-2.836,8.773-5.33,10.456-7.653A2.1,2.1,0,0,1,593.312,594.432Zm0,0" transform="translate(-159.132 -162.118)" fill="#263238"/>
    <path id="Path_155" data-name="Path 155" d="M503.773,597.988H513.2a.758.758,0,0,1,.738.587l1.7,7.678a1.231,1.231,0,0,1-1.229,1.549c-3.4-.062-8.308-.259-12.577-.259-5.007,0-9.315.27-15.18.27-3.546,0-4.527-3.586-3.044-3.917,6.751-1.475,12.274-1.634,18.1-5.233A3.991,3.991,0,0,1,503.773,597.988Zm0,0" transform="translate(-132.265 -163.658)" fill="#263238"/>
    <path id="Path_156" data-name="Path 156" d="M555.575,193.177c8.087,1.855,14.727,22.53,14.727,22.53l-16.162,12.37a35.555,35.555,0,0,1-8.589-15.969C542.692,201.272,547.3,191.262,555.575,193.177Zm0,0" transform="translate(-149.178 -52.727)" fill="#407bff"/>
    <g id="Group_5" data-name="Group 5" transform="translate(395.523 140.213)">
      <path id="Path_157" data-name="Path 157" d="M555.575,193.177c8.087,1.855,14.727,22.53,14.727,22.53l-16.162,12.37a35.555,35.555,0,0,1-8.589-15.969C542.692,201.272,547.3,191.262,555.575,193.177Zm0,0" transform="translate(-544.701 -192.94)"/>
    </g>
    <path id="Path_158" data-name="Path 158" d="M491.746,213.357c-2.014,2.175-4.025,4.116-6.135,6.141-1.044.984-2.1,1.966-3.18,2.913l-1.631,1.438-.406.354-.7.565a9.779,9.779,0,0,1-2.368,1.4,7.706,7.706,0,0,1-2.993.616,7.335,7.335,0,0,1-2.578-.457,7.221,7.221,0,0,1-2.454-1.56,7.353,7.353,0,0,1-1.915-3.18,8.361,8.361,0,0,1-.357-1.833,12.758,12.758,0,0,1,0-2.184c.062-.59.136-1.106.235-1.585a30.415,30.415,0,0,1,1.421-4.913,44.306,44.306,0,0,1,1.9-4.448c.786-1.56,1.535-2.7,2.284-4a100.212,100.212,0,0,1,10.37-14.077A95.254,95.254,0,0,1,495.819,176.6l4.516,4.655c-3.165,4.249-6.282,8.807-9.167,13.291a144.278,144.278,0,0,0-7.851,13.82c-.531,1.154-1.229,2.456-1.56,3.39a32.646,32.646,0,0,0-1.14,3.315,21.421,21.421,0,0,0-.7,3.1,4.59,4.59,0,0,0,0,.49v-.11a3.446,3.446,0,0,0-.159-.811,5.274,5.274,0,0,0-1.412-2.284,5.941,5.941,0,0,0-2.025-1.228,5.854,5.854,0,0,0-2.059-.383,4.983,4.983,0,0,0-1.977.383,4.086,4.086,0,0,0-.612.306l.465-.431,1.486-1.35L476.554,210c1.937-1.83,3.889-3.784,5.73-5.6Zm0,0" transform="translate(-127.893 -48.254)" fill="#ff8b7b"/>
    <g id="Group_6" data-name="Group 6" transform="translate(395.882 155.633)">
      <path id="Path_159" data-name="Path 159" d="M548.778,214.176c4.394,4.348,5.829,12.285,6.135,19.163l-.712.553a35.54,35.54,0,0,1-8.589-15.969c-.159-.638-.306-1.228-.418-1.929Zm0,0" transform="translate(-545.195 -214.176)"/>
    </g>
    <path id="Path_160" data-name="Path 160" d="M488.716,201c-1.767,9.335-2.873,28.509,2.244,66.467h46.217c.317-7.086-4.136-41.7,2.7-75.126a121.666,121.666,0,0,0-15.461-1.955,171.95,171.95,0,0,0-19.634,0c-2.162.2-4.3.516-6.136.848A12.275,12.275,0,0,0,488.716,201Zm0,0" transform="translate(-133.441 -51.951)" fill="url(#radial-gradient)"/>
    <g id="Group_7" data-name="Group 7" transform="translate(353.798 138.155)">
      <path id="Path_161" data-name="Path 161" d="M488.716,201c-1.767,9.335-2.873,28.509,2.244,66.467h46.217c.317-7.086-4.136-41.7,2.7-75.126a121.666,121.666,0,0,0-15.461-1.955,171.95,171.95,0,0,0-19.634,0c-2.162.2-4.3.516-6.136.848A12.275,12.275,0,0,0,488.716,201Zm0,0" transform="translate(-487.238 -190.106)" fill="none"/>
    </g>
    <g id="Group_8" data-name="Group 8" transform="translate(353.806 160.891)">
      <path id="Path_162" data-name="Path 162" d="M495.788,223.421l-8.345-2c-.258,5.06-.284,11.326.085,19.075C491.369,236.122,496.279,229.292,495.788,223.421Zm0,0" transform="translate(-487.25 -221.418)"/>
    </g>
    <g id="Group_9" data-name="Group 9" transform="translate(370.589 415.325)">
      <path id="Path_163" data-name="Path 163" d="M510.363,571.816l.443,10.305h8.637L519,571.816Zm0,0" transform="translate(-510.363 -571.816)"/>
    </g>
    <g id="Group_10" data-name="Group 10" transform="translate(426.524 412.696)">
      <path id="Path_164" data-name="Path 164" d="M595.836,568.2l-8.441,1.83,4.368,9.607L600.2,577.8Zm0,0" transform="translate(-587.395 -568.195)"/>
    </g>
    <path id="Path_165" data-name="Path 165" d="M530.991,145.657c-2.21,8.279-3.095,13.24-8.2,16.681-7.67,5.233-17.24-.763-17.487-9.508-.269-7.9,3.4-20.122,12.273-21.793a11.691,11.691,0,0,1,13.414,14.619Zm0,0" transform="translate(-138.385 -35.719)" fill="#ff8b7b"/>
    <path id="Path_166" data-name="Path 166" d="M513.528,146.792c-.417-1.106-2.318-9.667-.528-11.89s22.227-.616,25.245,2.357c5.018,4.916,1.534,9.337-3.952,15.024-4.124,4.275-4.283,9.091-6.37,9.829-3.682,1.228-9.3.073-10.429-3.821S513.528,146.792,513.528,146.792Zm0,0" transform="translate(-140.289 -36.548)" fill="#263238"/>
    <path id="Path_167" data-name="Path 167" d="M534.049,124.584c-7.216-3.069-20.751.332-28.067-1.436a11.274,11.274,0,0,0,9.341,11.5,96.339,96.339,0,0,0,18.405,1.708C541.755,135.983,540.184,127.2,534.049,124.584Zm0,0" transform="translate(-138.572 -33.613)" fill="#263238"/>
    <path id="Path_168" data-name="Path 168" d="M546.191,138.344a13.731,13.731,0,0,0,7.645-1.461C555.186,140.151,547.762,141.047,546.191,138.344Zm0,0" transform="translate(-149.586 -37.375)" fill="#263238"/>
    <path id="Path_169" data-name="Path 169" d="M516.892,150.788a9.753,9.753,0,0,1-2.454,5.738c-1.892,2.076-3.855.774-4.187-1.744-.295-2.287.321-6.144,2.627-7.247S517.051,148.221,516.892,150.788Zm0,0" transform="translate(-139.724 -40.201)" fill="#ff8b7b"/>
    <path id="Path_170" data-name="Path 170" d="M514.926,296.687s9.817,66.027,15.18,90.766c5.877,27.085,37.464,116.7,37.464,116.7l15.45-3.353s-22.087-73.041-27-110.91c-3.8-29.091-11.278-93.223-11.278-93.223Zm0,0" transform="translate(-141.024 -81.134)" fill="#407bff"/>
    <path id="Path_171" data-name="Path 171" d="M582.324,574.033c-.062,0,2.882,5.6,2.882,5.6l17.379-3.769-1.461-5.233Zm0,0" transform="translate(-159.482 -156.167)" fill="#263238"/>
    <g id="Group_11" data-name="Group 11" transform="translate(377.547 238.984)">
      <path id="Path_172" data-name="Path 172" d="M522.5,329.059c11.326,2.223,10.123,44.5,8.761,66.259-3.265-15.379-8.05-44.96-11.315-65.953A3.853,3.853,0,0,1,522.5,329.059Zm0,0" transform="translate(-519.945 -328.965)"/>
    </g>
    <path id="Path_173" data-name="Path 173" d="M492.127,296.677s-1.225,64.6-.244,90.9c.982,27.406,10.54,117.139,10.54,117.139h14.628s.527-88.137,1.228-115.051c.712-29.335,4.246-93.038,4.246-93.038Zm0,0" transform="translate(-134.609 -81.125)" fill="#407bff"/>
    <path id="Path_174" data-name="Path 174" d="M502.67,575.25c-.074,0,.823,6.067.823,6.067h17.781l.491-5.415Zm0,0" transform="translate(-137.666 -157.431)" fill="#263238"/>
    <path id="Path_175" data-name="Path 175" d="M502.6,204.336c4.135,11.167-20.176,24.323-20.176,24.323L471.9,215.146s7.08-14.026,15.671-20.34C498.184,187.017,499.449,195.835,502.6,204.336Zm0,0" transform="translate(-129.239 -52.414)" fill="#407bff"/>
    <g id="Group_12" data-name="Group 12" transform="translate(342.659 139.382)">
      <path id="Path_176" data-name="Path 176" d="M502.6,204.336c4.135,11.167-20.176,24.323-20.176,24.323L471.9,215.146s7.08-14.026,15.671-20.34C498.184,187.017,499.449,195.835,502.6,204.336Zm0,0" transform="translate(-471.898 -191.796)"/>
    </g>
    <path id="Path_177" data-name="Path 177" d="M672.944,42.759c0-15.6-19.827-28.251-44.289-28.251s-44.288,12.648-44.288,28.251,19.83,28.254,44.288,28.254S672.944,58.362,672.944,42.759Zm0,0" transform="translate(-160.041 -3.86)" fill="url(#linear-gradient-2)"/>
    <path id="Path_178" data-name="Path 178" d="M618.7,63.62a12.41,12.41,0,0,1-12.185-10.3,12.553,12.553,0,0,1,9.462-14.151,12.339,12.339,0,0,1,13.278,5.551l28.432-5.871a4.446,4.446,0,0,1,5.2,3.061,4.289,4.289,0,0,1-3.279,5.293l-.734.147a.732.732,0,0,0-.516.38.782.782,0,0,0,0,.638l.5,1.3a1.953,1.953,0,0,1-.763,2.368,2.349,2.349,0,0,0-1.092,1.733,1.925,1.925,0,0,1-1.484,1.708l-.579.122a1.91,1.91,0,0,1-2.036-.981,2.393,2.393,0,0,0-4.431.922,1.9,1.9,0,0,1-1.472,1.693l-.576.125a1.925,1.925,0,0,1-2.037-.984,2.458,2.458,0,0,0-1.707-1.154,1.951,1.951,0,0,1-1.717-1.929v-1.4a.762.762,0,0,0-.908-.712L631,53.043a12.362,12.362,0,0,1-9.755,10.319A12.54,12.54,0,0,1,618.7,63.62Zm-2.453-23.338a11.309,11.309,0,0,0-8.589,12.8,11.177,11.177,0,0,0,22.087-.638V52l10-2.025A1.986,1.986,0,0,1,642.2,51.84v1.4a.727.727,0,0,0,.59.7,3.573,3.573,0,0,1,2.59,1.756.713.713,0,0,0,.723.394l.564-.125a.684.684,0,0,0,.516-.638,3.618,3.618,0,0,1,6.748-1.424.7.7,0,0,0,.712.391l.59-.122a.684.684,0,0,0,.5-.638,3.561,3.561,0,0,1,1.682-2.641.75.75,0,0,0,.258-.885l-.5-1.3a1.978,1.978,0,0,1,1.446-2.655l.749-.159a3.081,3.081,0,0,0,2.343-3.773,3.2,3.2,0,0,0-3.778-2.173L628.7,46.031l-.221-.383a11.036,11.036,0,0,0-12.171-5.341ZM618.7,59.051a7.537,7.537,0,1,1,1.6-.1,8,8,0,0,1-1.583.122Zm0-14.506a7.321,7.321,0,0,0-1.362.133,6.689,6.689,0,1,0,5.081.984,6.517,6.517,0,0,0-3.668-1.095Zm0,0" transform="translate(-166.066 -10.496)" fill="#fff"/>
    <g id="Group_13" data-name="Group 13" transform="translate(418.018 65.15)">
      <path id="Path_179" data-name="Path 179" d="M604.791,98.853c0-5.128-6.518-9.286-14.554-9.286s-14.557,4.158-14.557,9.286,6.518,9.287,14.557,9.287S604.791,103.981,604.791,98.853Zm0,0" transform="translate(-575.68 -89.566)" fill="#407bff"/>
    </g>
    <g id="Group_14" data-name="Group 14" transform="translate(403.441 79.903)">
      <path id="Path_180" data-name="Path 180" d="M567.558,113.692c0-2.105-2.677-3.809-5.976-3.809s-5.977,1.7-5.977,3.809,2.675,3.806,5.977,3.806S567.558,115.794,567.558,113.692Zm0,0" transform="translate(-555.605 -109.883)" fill="#407bff"/>
    </g>
  </g>
</svg>
