<svg xmlns="http://www.w3.org/2000/svg" xmlns:xlink="http://www.w3.org/1999/xlink" width="647.771" height="1080.929" viewBox="0 0 647.771 1080.929">
  <defs>
    <linearGradient id="linear-gradient" x1="0.5" x2="0.5" y2="1" gradientUnits="objectBoundingBox">
      <stop offset="0" stop-color="#283891"/>
      <stop offset="1" stop-color="#4094ec"/>
    </linearGradient>
  </defs>
  <path id="Path_158" data-name="Path 158" d="M0,0H646.767s-1.283,169.83-41.054,219.866S552.47,277.6,552.47,277.6s-43.62,35.121-38.489,103.919-12.829,123.965-12.829,123.965l-19.886,47.79L465.23,581.5l-14.112,20.527-19.886,23.735-14.754,18.6-27.583,34L345.274,731.6l-12.22,16.224-5.874,9.157-5.356,7.947-8.811,14.513s-25.57,43.883-31.617,67.9-12.439,42.846-12.439,42.846L263.6,904.008l-4.665,12.612-10.712,22.287s-8.163,20.9-51.312,74.981-65.436,66.041-65.436,66.041H.19Z" transform="translate(0.5 0.5)" stroke="#707070" stroke-width="1" fill="url(#linear-gradient)"/>
</svg>
